# xmcd
#
# Track frame offsets: 
#        183
#        19415
#        47283
#        72720
#        99900
#        125415
#        152220
#        164718
#        192025
#        220313
#        256130
#        271113
#        290548
#        314188
#
# Disc length: 4513 seconds
#
# Revision: 4
# Processed by: cddbd v1.5.2PL0 Copyright (c) Steve Scherf et al.
# Submitted via: ExactAudioCopy v0.99pb5
#
DISCID=d2119f0e
DTITLE=Paul Personne  - La route de la chance
DYEAR=1990
DGENRE=Blues
TTITLE0=La chance
TTITLE1=On s'dit tout
TTITLE2=J'prend l'bon coté
TTITLE3=Aujourd'hui... c'est d'main déjà
TTITLE4=Faut qu'ça bouge
TTITLE5=Jacky
TTITLE6=Un mec comme moi
TTITLE7=Trop tard
TTITLE8=Comme un étranger
TTITLE9=Perdant blues
TTITLE10=Frankie et Johnny
TTITLE11=Laisse-moi faire c'que j'veux
TTITLE12=Barjoland
TTITLE13=Ça va rouler
EXTD=ID3G:   0
EXTT0=
EXTT1=
EXTT2=
EXTT3=
EXTT4=
EXTT5=
EXTT6=
EXTT7=
EXTT8=
EXTT9=
EXTT10=
EXTT11=
EXTT12=
EXTT13=
PLAYORDER=
